<?xml version="1.0" standalone="no"?>
<!DOCTYPE svg PUBLIC "-//W3C//DTD SVG 20010904//EN"
 "http://www.w3.org/TR/2001/REC-SVG-20010904/DTD/svg10.dtd">
<svg version="1.0" xmlns="http://www.w3.org/2000/svg"
 width="1024.000000pt" height="1024.000000pt" viewBox="0 0 1024.000000 1024.000000"
 preserveAspectRatio="xMidYMid meet">

<g transform="translate(0.000000,1024.000000) scale(0.100000,-0.100000)"
fill="#000000" stroke="none">
<path d="M4140 7755 c-757 -101 -1353 -522 -1694 -1194 -154 -305 -252 -634
-298 -1001 -19 -158 -17 -594 5 -750 95 -685 351 -1191 788 -1556 298 -249
702 -416 1164 -481 137 -20 490 -22 630 -4 438 55 781 195 1010 412 165 157
258 324 338 604 26 91 77 313 77 334 0 7 -24 11 -68 11 l-69 0 -42 -102 c-219
-523 -553 -844 -995 -958 -407 -104 -797 -50 -1114 156 -116 75 -289 249 -372
374 -210 318 -346 761 -391 1279 -15 173 -6 674 15 829 86 636 296 1148 593
1448 181 182 383 294 624 345 135 29 368 31 509 6 336 -62 608 -237 726 -469
13 -26 34 -79 48 -118 l24 -71 -55 -137 c-29 -75 -148 -380 -264 -677 -116
-297 -264 -675 -329 -840 -65 -165 -204 -523 -310 -795 -256 -659 -287 -727
-407 -887 -66 -88 -132 -144 -210 -180 l-58 -27 82 -38 c273 -125 489 -146
786 -77 l87 21 0 49 c0 38 -4 51 -17 55 -128 41 -198 94 -233 176 -20 48 -22
63 -17 154 9 142 51 292 155 560 50 126 111 289 137 362 l48 132 691 -2 691
-3 84 -225 c233 -629 303 -833 308 -908 13 -168 -83 -256 -309 -285 l-88 -11
0 -73 0 -73 795 0 795 0 0 70 0 70 -33 0 c-41 0 -137 25 -193 50 -61 26 -123
96 -176 197 -89 170 -430 1051 -1048 2708 -387 1038 -370 980 -370 1233 l0
172 -90 0 -89 0 -33 -66 c-39 -78 -81 -119 -140 -135 -74 -19 -121 -5 -333
101 -251 125 -384 170 -655 221 -140 27 -554 35 -710 14z m1688 -1445 c67
-185 117 -321 397 -1070 65 -173 120 -323 123 -333 4 -16 -19 -17 -429 -15
-239 1 -518 4 -620 6 l-186 3 72 192 c40 106 120 314 178 462 101 258 356 918
371 960 10 28 12 23 94 -205z"/>
</g>
</svg>
